<?xml version="1.0" encoding="UTF-8" standalone="no"?>
<!-- Created with Inkscape (http://www.inkscape.org/) -->

<svg
   xmlns:dc="http://purl.org/dc/elements/1.1/"
   xmlns:cc="http://creativecommons.org/ns#"
   xmlns:rdf="http://www.w3.org/1999/02/22-rdf-syntax-ns#"
   xmlns:svg="http://www.w3.org/2000/svg"
   xmlns="http://www.w3.org/2000/svg"
   xmlns:xlink="http://www.w3.org/1999/xlink"
   xmlns:sodipodi="http://sodipodi.sourceforge.net/DTD/sodipodi-0.dtd"
   xmlns:inkscape="http://www.inkscape.org/namespaces/inkscape"
   width="1600"
   height="1200"
   id="svg2"
   version="1.1"
   inkscape:version="0.47 r22583"
   sodipodi:docname="logo.svg"
   inkscape:export-filename="/home/nathan/Documenten/Unief/gevorderdprogrammeren/practicum/si/data/splash.png"
   inkscape:export-xdpi="45"
   inkscape:export-ydpi="45">
  <defs
     id="defs4">
    <linearGradient
       id="linearGradient3874">
      <stop
         style="stop-color:#292929;stop-opacity:1;"
         offset="0"
         id="stop3876" />
      <stop
         style="stop-color:#868686;stop-opacity:1;"
         offset="1"
         id="stop3878" />
    </linearGradient>
    <inkscape:perspective
       sodipodi:type="inkscape:persp3d"
       inkscape:vp_x="0 : 526.18109 : 1"
       inkscape:vp_y="0 : 1000 : 0"
       inkscape:vp_z="744.09448 : 526.18109 : 1"
       inkscape:persp3d-origin="372.04724 : 350.78739 : 1"
       id="perspective10" />
    <inkscape:perspective
       id="perspective2884"
       inkscape:persp3d-origin="0.5 : 0.33333333 : 1"
       inkscape:vp_z="1 : 0.5 : 1"
       inkscape:vp_y="0 : 1000 : 0"
       inkscape:vp_x="0 : 0.5 : 1"
       sodipodi:type="inkscape:persp3d" />
    <linearGradient
       inkscape:collect="always"
       xlink:href="#linearGradient3874"
       id="linearGradient3896"
       gradientUnits="userSpaceOnUse"
       gradientTransform="matrix(1.5879854,0,0,2.0930928,-293.30092,-1887.0568)"
       x1="-2.1428742"
       y1="523.79071"
       x2="747.85718"
       y2="523.79071" />
  </defs>
  <sodipodi:namedview
     id="base"
     pagecolor="#ffffff"
     bordercolor="#666666"
     borderopacity="1.0"
     inkscape:pageopacity="0.0"
     inkscape:pageshadow="2"
     inkscape:zoom="0.35"
     inkscape:cx="854.14088"
     inkscape:cy="612.31769"
     inkscape:document-units="px"
     inkscape:current-layer="layer2"
     showgrid="false"
     inkscape:window-width="1280"
     inkscape:window-height="733"
     inkscape:window-x="0"
     inkscape:window-y="24"
     inkscape:window-maximized="1" />
  <metadata
     id="metadata7">
    <rdf:RDF>
      <cc:Work
         rdf:about="">
        <dc:format>image/svg+xml</dc:format>
        <dc:type
           rdf:resource="http://purl.org/dc/dcmitype/StillImage" />
        <dc:title></dc:title>
      </cc:Work>
    </rdf:RDF>
  </metadata>
  <g
     inkscape:groupmode="layer"
     id="layer2"
     inkscape:label="Achtergrond">
    <rect
       style="fill:url(#linearGradient3896);fill-opacity:1;stroke:#000000;stroke-width:36.46258545;stroke-linecap:butt;stroke-linejoin:miter;stroke-miterlimit:4;stroke-opacity:1;stroke-dasharray:none"
       id="rect2918"
       width="1163.5374"
       height="1563.5374"
       x="-282.97794"
       y="-1572.483"
       rx="42.186954"
       ry="122.72359"
       transform="matrix(0,1,-1,0,9.2857008,301.20922)" />
  </g>
  <g
     inkscape:label="Laag 1"
     inkscape:groupmode="layer"
     id="layer1"
     transform="translate(9.2857008,301.20922)"
     sodipodi:insensitive="true">
    <path
       style="fill:#000000"
       d="m 653.2143,714.59607 c 0,-20.14063 10.28667,-46.80172 22.85926,-59.24689 12.57259,-12.4452 34.36946,-22.6276 48.4375,-22.6276 18.42026,0 27.67708,-11.47848 33.07824,-41.01708 5.40649,-29.5679 14.65276,-41.01711 33.12499,-41.01711 18.47224,0 27.71851,11.44921 33.125,41.01711 5.63065,30.79368 14.41666,41.01708 35.25015,41.01708 15.26259,0 37.48109,11.76102 49.37446,26.13563 12.7913,15.45983 19.9651,41.98788 17.5623,64.94377 -27.4445,58.76132 -268.9148,95.5428 -272.8119,-9.20491 z m 250,1.83373 c 0,-14.11876 -7.03126,-31.98694 -15.625,-39.70696 -8.59375,-7.72002 -29.6875,-16.16409 -46.87501,-18.76456 -21.20782,-3.20876 -32.53359,-14.61379 -35.24438,-35.49097 -2.19691,-16.91954 -8.83693,-30.76281 -14.75562,-30.76281 -5.91867,0 -12.55869,13.84327 -14.7556,30.76281 -2.7108,20.87718 -14.03658,32.28221 -35.24439,35.49097 -17.18751,2.60047 -38.28125,11.04454 -46.875,18.76456 -8.59376,7.72002 -15.625,25.5882 -15.625,39.70696 0,23.21117 10.7789,25.67068 112.49999,25.67068 101.72109,0 112.50001,-2.45951 112.50001,-25.67068 z m -575,-275.74278 c 0,-84.04436 3.91251,-100.60748 30.68181,-129.88747 28.07578,-30.70893 40.33391,-33.55942 144.3182,-33.55942 104.54823,0 116.13582,2.73389 144.88922,34.18404 28.12212,30.75967 30.88263,43.42876 27.55684,126.46938 -3.69608,92.28531 -3.69608,92.28531 -44.1128,96.55267 -29.86812,3.1536 -48.62723,-4.71319 -71.87501,-30.14135 -17.30203,-18.92479 -31.45826,-43.91721 -31.45826,-55.53871 0,-12.01512 -10.78431,-21.13003 -24.99999,-21.13003 -14.21569,0 -25.00001,9.11491 -25.00001,21.13003 0,11.6215 -13.8068,36.23176 -30.68181,54.68945 -21.0373,23.01036 -44.6128,33.55942 -75,33.55942 -44.31819,0 -44.31819,0 -44.31819,-96.32801 z m 96.06938,39.25528 c 15.91185,-16.35041 28.93062,-40.96066 28.93062,-54.68945 0,-20.00677 9.92465,-24.96145 50.00001,-24.96145 38.55737,0 50,5.27401 50,23.04545 0,12.67498 12.23051,37.28523 27.17892,54.68943 14.94841,17.40421 37.4484,31.64403 50,31.64403 19.07937,0 22.82107,-11.31039 22.82107,-68.98329 0,-55.0117 -6.21416,-75.78028 -30.68182,-102.54273 -26.80653,-29.32068 -41.87711,-33.55944 -119.31817,-33.55944 -77.44108,0 -92.51166,4.23876 -119.3182,33.55944 -24.46764,26.76245 -30.68181,47.53103 -30.68181,102.54273 0,55.5786 4.09416,68.98329 21.06937,68.98329 11.58814,0 34.08816,-13.37761 50.00001,-29.72801 z M 903.2143,440.68702 c 0,-84.04436 3.9125,-100.60748 30.6818,-129.88747 25.1987,-27.56206 43.0696,-33.55942 100,-33.55942 60.9849,0 69.3182,3.28735 69.3182,27.34472 0,15.03961 5.625,27.34473 12.5,27.34473 6.875,0 12.5,-6.15255 12.5,-13.67235 0,-7.51981 22.5,-13.67238 50,-13.67238 47.2222,0 50,2.27873 50,41.01709 0,22.5594 5.625,41.0171 12.5,41.0171 6.875,0 12.5,33.8391 12.5,75.198 0,75.19799 0,75.19799 -44.3182,75.19799 -30.3872,0 -53.9627,-10.54906 -75,-33.55942 -16.8749,-18.45769 -30.6818,-43.06795 -30.6818,-54.68945 0,-12.01512 -10.7843,-21.13003 -25,-21.13003 -14.2156,0 -25,9.11491 -25,21.13003 0,11.6215 -13.8068,36.23176 -30.6818,54.68945 -21.0374,23.01036 -44.6128,33.55942 -75,33.55942 -44.3182,0 -44.3182,0 -44.3182,-96.32801 z m 96.0694,39.25528 c 15.9118,-16.35041 28.9306,-40.96066 28.9306,-54.68945 0,-17.28552 9.2953,-24.96145 30.2277,-24.96145 16.6252,0 39.1252,3.73454 50,8.29897 10.8748,4.56444 19.7723,14.93489 19.7723,23.04544 0,8.11056 12.2305,28.98627 27.1789,46.39047 14.9484,17.40421 37.4485,31.64403 50.0001,31.64403 16.86,0 22.821,-10.37961 22.821,-39.73708 0,-33.00579 -4.2349,-38.52578 -25,-32.5863 -13.75,3.93295 -25,1.04977 -25,-6.40714 0,-7.45685 -17.4841,-17.38271 -38.8534,-22.05743 -27.833,-6.08868 -36.8081,-14.32949 -31.6423,-29.05377 4.3997,-12.54077 0.054,-20.55427 -11.1466,-20.55427 -10.0967,0 -18.3577,-12.30514 -18.3577,-27.34474 0,-22.20299 -8.3333,-27.34473 -44.3182,-27.34473 -30.3872,0 -53.9627,10.54909 -75,33.55944 -24.4677,26.76245 -30.6818,47.53103 -30.6818,102.54273 0,55.5786 4.0941,68.98329 21.0694,68.98329 11.5881,0 34.0881,-13.37761 50,-29.72801 z M 778.2143,427.63613 c 0,-31.90218 5.55555,-41.01709 25,-41.01709 19.44445,0 25,9.11491 25,41.01709 0,31.90218 -5.55555,41.01709 -25,41.01709 -19.44445,0 -25,-9.11491 -25,-41.01709 z M 365.71431,140.51649 c 0,-7.5198 -16.87501,-13.67235 -37.50001,-13.67235 -36.1111,0 -37.5,-2.27874 -37.5,-61.525648 0,-33.839106 5.62501,-61.5256389 12.50001,-61.5256389 6.875,0 12.5,-6.9690405 12.5,-15.4867491 0,-8.517709 12.65624,-27.803739 28.12499,-42.857861 19.07757,-18.566196 23.09865,-29.344587 12.5,-33.505873 -8.59374,-3.374138 -15.62499,-17.9272 -15.62499,-32.34014 0,-16.00665 8.65566,-26.20537 22.2405,-26.20537 12.23229,0 30.34906,12.30514 40.2595,27.34474 9.91044,15.03959 26.78544,27.344706 37.49999,27.344706 10.71457,0 27.58957,-12.305116 37.5,-27.344706 9.91044,-15.0396 28.02721,-27.34474 40.25949,-27.34474 13.58485,0 22.24051,10.19872 22.24051,26.20537 0,14.41294 -7.03124,28.966002 -15.62499,32.34014 -10.59866,4.161286 -6.57758,14.939677 12.49999,33.505873 15.46875,15.054122 28.125,34.340152 28.125,42.857861 0,8.5177086 5.625,15.4867491 12.49999,15.4867491 6.87501,0 12.50002,27.6865329 12.50002,61.5256389 0,59.246908 -1.3889,61.525648 -37.5,61.525648 -20.625,0 -37.50001,6.15255 -37.50001,13.67235 0,7.51981 -14.0625,13.67238 -31.25,13.67238 -22.91665,0 -31.25,-7.29193 -31.25,-27.34473 0,-15.19152 8.33335,-27.34474 18.75001,-27.34474 10.3125,0 18.75,-6.152558 18.75,-13.672356 0,-7.5198 -22.5,-13.672374 -50.00001,-13.672374 -27.49999,0 -50.00001,6.152574 -50.00001,13.672374 0,7.519798 8.43751,13.672356 18.75002,13.672356 10.41665,0 18.75,12.15322 18.75,27.34474 0,20.0528 -8.33335,27.34473 -31.25,27.34473 -17.18751,0 -31.25,-6.15257 -31.25,-13.67238 z m 190.625,-105.553901 c -8.59376,-3.35706 -15.62501,-14.81987 -15.62501,-25.4729151 0,-10.6530455 -5.62499,-19.3691776 -12.5,-19.3691776 -6.87499,0 -12.5,9.22884399 -12.5,20.5085357 0,11.393641 -11.11111,20.508551 -24.99999,20.508551 -16.66666,0 -25,-9.11491 -25,-27.3447299 0,-18.5441241 8.33334,-27.3447301 25.89286,-27.3447301 23.01586,0 23.8095,-2.278731 7.14285,-20.508535 -10.31251,-11.279707 -36.42857,-20.508552 -58.03572,-20.508552 -21.60713,0 -47.72321,9.228845 -58.03571,20.508552 -16.66666,18.229804 -15.87301,20.508535 7.14284,20.508535 17.55954,0 25.89288,8.800606 25.89288,27.3447301 0,18.2298199 -8.33334,27.3447299 -25.00002,27.3447299 -13.88887,0 -24.99998,-9.11491 -24.99998,-20.508551 0,-11.27969171 -5.62501,-20.5085357 -12.50001,-20.5085357 -6.875,0 -12.49999,9.22884399 -12.49999,20.5085357 0,11.279707 -7.03126,21.700096 -15.62501,23.156424 -8.59376,1.456343 40.62501,6.070766 109.37501,10.254268 68.75,4.183534 127.8125,5.225954 131.24999,2.316507 3.43751,-2.909447 -0.78124,-8.036581 -9.37499,-11.393642 z M 715.7143,140.51649 c 0,-7.5198 -16.87499,-13.67235 -37.5,-13.67235 -36.11111,0 -37.49999,-2.27874 -37.49999,-61.525648 0,-33.839106 5.625,-61.5256389 12.49999,-61.5256389 6.875,0 12.49999,-6.9690405 12.49999,-15.4867491 0,-8.517709 12.65625,-27.803739 28.12501,-42.857861 19.07757,-18.566196 23.09865,-29.344587 12.5,-33.505873 -8.59375,-3.374138 -15.625,-17.9272 -15.625,-32.34014 0,-16.00665 8.65566,-26.20537 22.2405,-26.20537 12.23228,0 30.34906,12.30514 40.25949,27.34474 9.91045,15.03959 26.78544,27.344706 37.5,27.344706 10.71458,0 27.58957,-12.305116 37.50001,-27.344706 9.91044,-15.0396 28.02722,-27.34474 40.25948,-27.34474 13.58485,0 22.24052,10.19872 22.24052,26.20537 0,14.41294 -7.03126,28.966002 -15.62501,32.34014 -10.59865,4.161286 -6.57758,14.939677 12.50001,33.505873 15.4687,15.054122 28.125,34.340152 28.125,42.857861 0,8.5177086 5.625,15.4867491 12.5,15.4867491 6.875,0 12.5,27.6865329 12.5,61.5256389 0,59.246908 -1.3889,61.525648 -37.5,61.525648 -20.62501,0 -37.5,6.15255 -37.5,13.67235 0,7.51981 -14.06251,13.67238 -31.25,13.67238 -22.91667,0 -31.25,-7.29193 -31.25,-27.34473 0,-15.19152 8.33333,-27.34474 18.74999,-27.34474 10.3125,0 18.75,-6.152558 18.75,-13.672356 0,-7.5198 -22.49999,-13.672374 -50,-13.672374 -27.49999,0 -49.99999,6.152574 -49.99999,13.672374 0,7.519798 8.4375,13.672356 18.74999,13.672356 10.41667,0 18.75001,12.15322 18.75001,27.34474 0,20.0528 -8.33334,27.34473 -31.25,27.34473 -17.18751,0 -31.25,-6.15257 -31.25,-13.67238 z m 200,-99.124639 c 0,-5.639845 -5.625,-10.254268 -12.5,-10.254268 -6.87501,0 -12.5,-9.228844 -12.5,-20.508551 0,-11.27969171 -5.62501,-20.5085357 -12.50001,-20.5085357 -6.87499,0 -12.49999,9.22884399 -12.49999,20.5085357 0,11.393641 -11.11112,20.508551 -25.00001,20.508551 -16.66667,0 -24.99999,-9.11491 -24.99999,-27.3447299 0,-18.5441241 8.33332,-27.3447301 25.89286,-27.3447301 21.89337,0 23.25407,-2.886273 8.8092,-18.685907 -9.39602,-10.27725 -37.9228,-21.346947 -63.39286,-24.599298 -30.98499,-3.956592 -46.3092,-0.412407 -46.3092,10.710355 0,9.143079 -7.03125,19.727036 -15.625,23.519916 -8.59374,3.79288 -2.96875,7.381878 12.50001,7.975553 19.46271,0.746947 28.12499,9.50135 28.12499,28.4241111 0,18.2298199 -8.33334,27.3447299 -25,27.3447299 -13.88889,0 -25,-9.11491 -25,-20.508551 0,-11.27969171 -5.625,-20.5085357 -12.49999,-20.5085357 -6.87502,0 -12.50001,9.22884399 -12.50001,20.5085357 0,11.279707 -5.625,20.508551 -12.5,20.508551 -6.875,0 -12.50001,4.614423 -12.50001,10.254268 0,5.639862 56.25001,10.254284 125,10.254284 68.75001,0 125.00001,-4.614422 125.00001,-10.254284 z m 150,99.124639 c 0,-7.5198 -16.875,-13.67235 -37.5,-13.67235 -36.1111,0 -37.5,-2.27874 -37.5,-61.525648 0,-33.839106 5.625,-61.5256389 12.5,-61.5256389 6.875,0 12.5,-6.9690405 12.5,-15.4867491 0,-8.517709 12.6562,-27.803739 28.125,-42.857861 19.0776,-18.566196 23.0987,-29.344587 12.5,-33.505873 -8.5938,-3.374138 -15.625,-17.9272 -15.625,-32.34014 0,-16.00665 8.6556,-26.20537 22.2406,-26.20537 12.2322,0 30.349,12.30514 40.2594,27.34474 9.9104,15.03959 26.7854,27.344706 37.5,27.344706 10.7146,0 27.5895,-12.305116 37.5,-27.344706 9.9105,-15.0396 28.0272,-27.34474 40.2595,-27.34474 13.5849,0 22.2405,10.19872 22.2405,26.20537 0,14.41294 -7.0313,28.966002 -15.625,32.34014 -10.5987,4.161286 -6.5776,14.939677 12.5,33.505873 15.4687,15.054122 28.125,34.340152 28.125,42.857861 0,8.5177086 5.625,15.4867491 12.5,15.4867491 6.875,0 12.5,27.6865329 12.5,61.5256389 0,59.246908 -1.3889,61.525648 -37.5,61.525648 -20.625,0 -37.5,6.15255 -37.5,13.67235 0,7.51981 -14.0625,13.67238 -31.25,13.67238 -22.9166,0 -31.25,-7.29193 -31.25,-27.34473 0,-15.19152 8.3334,-27.34474 18.75,-27.34474 10.3125,0 18.75,-6.152558 18.75,-13.672356 0,-7.5198 -22.5,-13.672374 -50,-13.672374 -27.5,0 -50,6.152574 -50,13.672374 0,7.519798 8.4375,13.672356 18.75,13.672356 10.4166,0 18.75,12.15322 18.75,27.34474 0,20.0528 -8.3334,27.34473 -31.25,27.34473 -17.1875,0 -31.25,-6.15257 -31.25,-13.67238 z m 200,-99.124639 c 0,-5.639845 -5.625,-10.254268 -12.5,-10.254268 -6.875,0 -12.5,-9.228844 -12.5,-20.508551 0,-11.27969171 -5.625,-20.5085357 -12.5,-20.5085357 -6.875,0 -12.5,9.22884399 -12.5,20.5085357 0,11.393641 -11.1111,20.508551 -25,20.508551 -16.6667,0 -25,-9.11491 -25,-27.3447299 0,-18.5441241 8.3333,-27.3447301 25.8928,-27.3447301 23.0159,0 23.8096,-2.278731 7.1429,-20.508535 -10.3125,-11.279707 -36.4286,-20.508552 -58.0357,-20.508552 -21.6071,0 -47.7232,9.228845 -58.0357,20.508552 -16.6667,18.229804 -15.873,20.508535 7.1429,20.508535 17.5595,0 25.8928,8.800606 25.8928,27.3447301 0,18.2298199 -8.3333,27.3447299 -25,27.3447299 -13.8888,0 -25,-9.11491 -25,-20.508551 0,-11.27969171 -5.625,-20.5085357 -12.5,-20.5085357 -6.875,0 -12.5001,9.22884399 -12.5001,20.5085357 0,11.279707 -5.6249,20.508551 -12.4999,20.508551 -6.875,0 -12.5,4.614423 -12.5,10.254268 0,5.639862 56.25,10.254284 125,10.254284 68.75,0 125,-4.614422 125,-10.254284 z"
       id="path2916"
       sodipodi:nodetypes="cssssssscccsssssssssccsssssssssssccsssssssssssccssssssssssssssssccsssssssssssssssssccsssccsssssssssssssssssssssssssssssccssssssssssssssssssccsssssssssssssssssssssssssssssccssssssssssssssssssssccsssssssssssssssssssssssssssssccsssssssssssssssssssc" />
  </g>
</svg>
